<svg width="56" height="56" viewBox="0 0 56 56" fill="none" xmlns="http://www.w3.org/2000/svg">
<path d="M24.1035 21.1807L28.9424 26.0195H19.2998V29.3018H29.1953L24.1035 34.3936L26.4238 36.7148L35.3516 27.7871L26.4238 18.8604L24.1035 21.1807Z" fill="#5594E8"/>
<path d="M50.4928 27.0226C50.3518 22.9281 49.1053 18.948 46.8857 15.5045C44.666 12.061 41.5558 9.28228 37.885 7.46306C34.2141 5.64384 30.1193 4.8519 26.0349 5.17121C21.9504 5.49052 18.0285 6.90918 14.6849 9.27677C11.3413 11.6444 8.70079 14.8726 7.04323 18.6193C5.38567 22.3659 4.77288 26.4913 5.26984 30.558C5.7668 34.6246 7.35498 38.481 9.86599 41.7183C12.377 44.9555 15.7172 47.4529 19.5325 48.9457L20.5621 46.3142C17.2217 45.0073 14.2972 42.8207 12.0987 39.9864C9.90027 37.1521 8.50977 33.7757 8.07467 30.2152C7.63956 26.6547 8.17608 23.0428 9.62733 19.7625C11.0786 16.4822 13.3905 13.6557 16.3178 11.5828C19.2452 9.50995 22.679 8.26787 26.2551 7.98831C29.8312 7.70874 33.4163 8.40211 36.6302 9.99489C39.8442 11.5877 42.5672 14.0205 44.5106 17.0354C46.454 20.0504 47.5453 23.535 47.6688 27.1199L50.4928 27.0226Z" fill="#D9D9D9"/>
</svg>
