<svg width="56" height="56" viewBox="0 0 56 56" fill="none" xmlns="http://www.w3.org/2000/svg">
<path d="M31.5049 21.1807L26.6661 26.0195H36.3087V29.3018H26.4131L31.5049 34.3936L29.1846 36.7148L20.2569 27.7871L29.1846 18.8604L31.5049 21.1807Z" fill="#5594E8"/>
<path d="M5.11565 27.0226C5.25671 22.9281 6.50315 18.948 8.72282 15.5045C10.9425 12.061 14.0526 9.28228 17.7235 7.46306C21.3944 5.64384 25.4891 4.8519 29.5736 5.17121C33.6581 5.49052 37.58 6.90918 40.9236 9.27677C44.2671 11.6444 46.9077 14.8726 48.5652 18.6193C50.2228 22.3659 50.8356 26.4913 50.3386 30.558C49.8417 34.6246 48.2535 38.481 45.7425 41.7183C43.2315 44.9555 39.8912 47.4529 36.0759 48.9457L35.0464 46.3142C38.3868 45.0073 41.3113 42.8207 43.5097 39.9864C45.7082 37.1521 47.0987 33.7757 47.5338 30.2152C47.9689 26.6547 47.4324 23.0428 45.9811 19.7625C44.5299 16.4822 42.218 13.6557 39.2906 11.5828C36.3632 9.50995 32.9295 8.26787 29.3534 7.98831C25.7773 7.70874 22.1922 8.40211 18.9782 9.99489C15.7643 11.5877 13.0412 14.0205 11.0979 17.0354C9.15446 20.0504 8.06316 23.535 7.93966 27.1199L5.11565 27.0226Z" fill="#D9D9D9"/>
</svg>
