<svg width="57" height="58" viewBox="0 0 57 58" fill="none" xmlns="http://www.w3.org/2000/svg">
<g filter="url(#filter0_d_2078_2238)">
<path d="M31.5049 22.3203L26.6661 27.1592H36.3087V30.4414H26.4131L31.5049 35.5332L29.1846 37.8545L20.2569 28.9268L29.1846 20L31.5049 22.3203Z" fill="#98C5FF"/>
</g>
<path d="M50.4668 30.2797C50.2258 34.3695 48.8824 38.3179 46.5793 41.7062C44.2761 45.0944 41.099 47.7963 37.3847 49.5252C33.6705 51.2542 29.5576 51.9458 25.4822 51.5268C21.4067 51.1078 17.5206 49.5937 14.2359 47.1451C10.9512 44.6965 8.39037 41.4047 6.82487 37.6186C5.25936 33.8326 4.74757 29.6935 5.34377 25.6402C5.93996 21.5869 7.62192 17.7704 10.2113 14.5955C12.8007 11.4206 16.2009 9.00559 20.0516 7.60652L21.0165 10.2623C17.6452 11.4873 14.6681 13.6017 12.401 16.3814C10.134 19.1612 8.66137 22.5026 8.13938 26.0514C7.61739 29.6002 8.06548 33.2241 9.43613 36.5389C10.8068 39.8537 13.0489 42.7358 15.9248 44.8796C18.8006 47.0234 22.203 48.3491 25.7712 48.7159C29.3394 49.0828 32.9403 48.4773 36.1923 46.9635C39.4442 45.4497 42.2259 43.0842 44.2424 40.1176C46.2588 37.1511 47.435 33.6942 47.6461 30.1134L50.4668 30.2797Z" fill="#00AAFF"/>
<defs>
<filter id="filter0_d_2078_2238" x="0.256897" y="0" width="56.0518" height="57.8545" filterUnits="userSpaceOnUse" color-interpolation-filters="sRGB">
<feFlood flood-opacity="0" result="BackgroundImageFix"/>
<feColorMatrix in="SourceAlpha" type="matrix" values="0 0 0 0 0 0 0 0 0 0 0 0 0 0 0 0 0 0 127 0" result="hardAlpha"/>
<feOffset/>
<feGaussianBlur stdDeviation="10"/>
<feComposite in2="hardAlpha" operator="out"/>
<feColorMatrix type="matrix" values="0 0 0 0 0 0 0 0 0 0.616667 0 0 0 0 1 0 0 0 1 0"/>
<feBlend mode="normal" in2="BackgroundImageFix" result="effect1_dropShadow_2078_2238"/>
<feBlend mode="normal" in="SourceGraphic" in2="effect1_dropShadow_2078_2238" result="shape"/>
</filter>
</defs>
</svg>
