<svg width="441" height="428" viewBox="0 0 441 428" fill="none" xmlns="http://www.w3.org/2000/svg">
<path d="M26.209 395.307L2.85806e-06 395.307L3.0329e-06 393.307L25.7041 393.307L43.6191 362.275L25.7041 331.244L8.45858e-06 331.244L8.78198e-06 327.545L25.7041 327.545L43.6192 296.514L25.7041 265.482L1.42077e-05 265.482L1.4531e-05 261.784L25.7041 261.784L43.6192 230.753L25.7041 199.722L1.99566e-05 199.722L2.028e-05 196.022L25.7041 196.022L43.6192 164.991L25.7041 133.96L2.57057e-05 133.96L2.58806e-05 131.96L26.8584 131.96L45.7344 164.653L82.5742 164.653L101.362 132.111L82.3799 99.2304L101.45 66.1992L139.592 66.1992L158.467 98.8916L195.173 98.8916L195.116 98.792L214.187 65.7607L252.328 65.7607L271.204 98.4541L308.044 98.4541L326.832 65.9121L307.85 33.0312L326.92 -9.92949e-06L365.062 -6.59504e-06L383.937 32.6924L421.429 32.6924L440.5 65.7236L421.515 98.6045L440.5 131.485L421.516 164.366L440.5 197.246L421.515 230.127L440.5 263.008L421.429 296.039L383.287 296.039L364.411 263.346L327.571 263.346L308.782 295.889L327.767 328.769L308.695 361.8L270.554 361.8L251.679 329.107L214.973 329.107L215.03 329.207L195.959 362.238L157.817 362.238L138.941 329.545L102.102 329.545L83.3125 362.088L102.297 394.968L83.2256 427.999L45.084 427.999L26.209 395.307ZM381.822 33.0312L363.907 1.99999L328.074 1.99999L310.159 33.0312L328.074 64.0625L363.907 64.0625L381.822 33.0312ZM438.189 65.7236L420.274 34.6924L384.441 34.6924L366.526 65.7236L384.441 96.7549L420.274 96.7549L438.189 65.7236ZM381.822 98.792L363.907 67.7607L328.074 67.7607L310.159 98.792L328.074 129.823L363.907 129.823L381.822 98.792ZM269.089 98.792L251.174 67.7607L215.341 67.7607L197.426 98.792L215.341 129.823L251.174 129.823L269.089 98.792ZM156.353 99.2304L138.438 68.1992L102.605 68.1992L84.6895 99.2304L102.605 130.262L138.438 130.262L156.353 99.2304ZM438.189 131.485L420.274 100.454L384.441 100.454L366.526 131.485L384.441 162.517L420.274 162.517L438.189 131.485ZM325.456 131.485L307.541 100.454L271.708 100.454L253.793 131.485L271.708 162.517L307.541 162.517L325.456 131.485ZM212.72 131.923L194.805 100.892L158.972 100.892L141.057 131.923L158.972 162.954L194.805 162.954L212.72 131.923ZM381.822 164.554L363.907 133.522L328.074 133.522L310.159 164.554L328.074 195.585L363.907 195.585L381.822 164.554ZM269.089 164.554L251.174 133.522L215.341 133.522L197.426 164.554L215.341 195.585L251.174 195.585L269.089 164.554ZM156.353 164.991L138.438 133.96L102.605 133.96L84.6895 164.991L102.605 196.022L138.438 196.022L156.353 164.991ZM438.189 197.246L420.274 166.215L384.441 166.215L366.526 197.246L384.441 228.277L420.274 228.277L438.189 197.246ZM325.456 197.246L307.541 166.215L271.708 166.215L253.793 197.246L271.708 228.277L307.541 228.277L325.456 197.246ZM212.72 197.685L194.805 166.653L158.972 166.653L141.057 197.685L158.972 228.716L194.805 228.716L212.72 197.685ZM99.9863 197.685L82.0713 166.653L46.2383 166.653L28.3233 197.685L46.2383 228.716L82.0713 228.716L99.9863 197.685ZM381.822 230.314L363.907 199.283L328.074 199.283L310.159 230.314L328.074 261.346L363.907 261.346L381.822 230.314ZM269.089 230.314L251.174 199.283L215.341 199.283L197.426 230.314L215.341 261.346L251.174 261.346L269.089 230.314ZM156.353 230.753L138.438 199.722L102.605 199.722L84.6895 230.753L102.605 261.784L138.438 261.784L156.353 230.753ZM438.189 263.008L420.274 231.977L384.441 231.977L366.526 263.008L384.441 294.039L420.274 294.039L438.189 263.008ZM325.456 263.008L307.541 231.977L271.708 231.977L253.793 263.008L271.708 294.039L307.541 294.039L325.456 263.008ZM212.72 263.445L194.805 232.414L158.972 232.414L141.057 263.445L158.972 294.477L194.805 294.477L212.72 263.445ZM99.9863 263.445L82.0713 232.414L46.2383 232.414L28.3233 263.445L46.2383 294.477L82.0713 294.477L99.9863 263.445ZM269.089 296.076L251.174 265.045L215.341 265.045L197.426 296.076L215.341 327.107L251.174 327.107L269.089 296.076ZM156.353 296.514L138.438 265.482L102.605 265.482L84.6895 296.514L102.605 327.545L138.438 327.545L156.353 296.514ZM325.456 328.769L307.541 297.737L271.708 297.737L253.793 328.769L271.708 359.8L307.541 359.8L325.456 328.769ZM212.72 329.207L194.805 298.176L158.972 298.176L141.057 329.207L158.972 360.238L194.805 360.238L212.72 329.207ZM99.9863 329.207L82.0713 298.176L46.2383 298.176L28.3233 329.207L46.2383 360.238L82.0713 360.238L99.9863 329.207ZM99.9863 394.968L82.0713 363.936L46.2383 363.936L28.3232 394.968L46.2383 425.999L82.0713 425.999L99.9863 394.968Z" fill="url(#paint0_linear_1_1773)"/>
<defs>
<linearGradient id="paint0_linear_1_1773" x1="83.6465" y1="329.499" x2="259.5" y2="-1.46872e-06" gradientUnits="userSpaceOnUse">
<stop stop-color="#50CAFF"/>
<stop offset="1" stop-color="#1EA5F9" stop-opacity="0"/>
</linearGradient>
</defs>
</svg>
