<svg width="15" height="15" viewBox="0 0 15 15" fill="none" xmlns="http://www.w3.org/2000/svg">
<path fill-rule="evenodd" clip-rule="evenodd" d="M2.83789 4.09078C3.70825 1.14035 7.02166 -0.604673 10.2383 0.193323C13.4549 0.991672 15.3583 4.03092 14.4883 6.98141L14.3994 7.25387C13.4109 10.0381 10.2032 11.6521 7.08691 10.8789L6.78906 10.7968C6.36619 10.6705 5.96934 10.5023 5.59961 10.3027L1.40234 14.1367L0 12.6211L3.96094 9.00192C2.85636 7.73931 2.36635 6.05139 2.76465 4.36715L2.83789 4.09078ZM9.64648 2.20016C7.40621 1.64437 5.37177 2.89084 4.86914 4.59469C4.3667 6.29851 5.43862 8.31491 7.67871 8.87106C9.91911 9.42711 11.9543 8.18142 12.457 6.4775C12.9595 4.77359 11.8868 2.75619 9.64648 2.20016Z" fill="white"/>
</svg>
