<svg width="642" height="333" viewBox="0 0 642 333" fill="none" xmlns="http://www.w3.org/2000/svg">
<mask id="path-1-inside-1_2156_8099" fill="white">
<path d="M192.258 166.5V277.5L96.1289 333L0 277.5V166.5L96.1289 111L192.258 166.5ZM3 168.231V275.768L96.1289 329.536L189.258 275.768V168.231L96.1289 114.463L3 168.231ZM641.129 187H578.129V183H641.129V187ZM641.129 115H331.117L271.188 150.964L269.129 147.534L330.009 111L330.129 111.199V111H641.129V115ZM303.258 75.5L207.129 131L111 75.5V0H114V73.7676L207.129 127.536L300.258 73.7676V0H303.258V75.5Z"/>
</mask>
<path d="M192.258 166.5H193.258V165.923L192.758 165.634L192.258 166.5ZM192.258 277.5L192.758 278.366L193.258 278.077V277.5H192.258ZM96.1289 333L95.6289 333.866L96.1289 334.155L96.6289 333.866L96.1289 333ZM0 277.5H-1V278.077L-0.5 278.366L0 277.5ZM0 166.5L-0.5 165.634L-1 165.923V166.5H0ZM96.1289 111L96.6289 110.134L96.1289 109.845L95.6289 110.134L96.1289 111ZM3 168.231L2.5 167.365L2 167.654V168.231H3ZM3 275.768H2V276.345L2.5 276.634L3 275.768ZM96.1289 329.536L95.6289 330.402L96.1289 330.691L96.6289 330.402L96.1289 329.536ZM189.258 275.768L189.758 276.634L190.258 276.345V275.768H189.258ZM189.258 168.231H190.258V167.654L189.758 167.365L189.258 168.231ZM96.1289 114.463L96.6289 113.597L96.1289 113.308L95.6289 113.597L96.1289 114.463ZM641.129 187V188H642.129V187H641.129ZM578.129 187H577.129V188H578.129V187ZM578.129 183V182H577.129V183H578.129ZM641.129 183H642.129V182H641.129V183ZM641.129 115V116H642.129V115H641.129ZM331.117 115V114H330.84L330.603 114.143L331.117 115ZM271.188 150.964L270.33 151.479L270.845 152.336L271.702 151.821L271.188 150.964ZM269.129 147.534L268.614 146.677L267.757 147.191L268.271 148.049L269.129 147.534ZM330.009 111L330.865 110.484L330.35 109.629L329.494 110.143L330.009 111ZM330.129 111.199L329.273 111.716L331.129 114.794V111.199H330.129ZM330.129 111V110H329.129V111H330.129ZM641.129 111H642.129V110H641.129V111ZM303.258 75.5L303.758 76.366L304.258 76.0773V75.5H303.258ZM207.129 131L206.629 131.866L207.129 132.155L207.629 131.866L207.129 131ZM111 75.5H110V76.0773L110.5 76.366L111 75.5ZM111 0V-1H110V0H111ZM114 0H115V-1H114V0ZM114 73.7676H113V74.3449L113.5 74.6336L114 73.7676ZM207.129 127.536L206.629 128.402L207.129 128.691L207.629 128.402L207.129 127.536ZM300.258 73.7676L300.758 74.6336L301.258 74.3449V73.7676H300.258ZM300.258 0V-1H299.258V0H300.258ZM303.258 0H304.258V-1H303.258V0ZM192.258 166.5H191.258V277.5H192.258H193.258V166.5H192.258ZM192.258 277.5L191.758 276.634L95.6289 332.134L96.1289 333L96.6289 333.866L192.758 278.366L192.258 277.5ZM96.1289 333L96.6289 332.134L0.5 276.634L0 277.5L-0.5 278.366L95.6289 333.866L96.1289 333ZM0 277.5H1V166.5H0H-1V277.5H0ZM0 166.5L0.5 167.366L96.6289 111.866L96.1289 111L95.6289 110.134L-0.5 165.634L0 166.5ZM96.1289 111L95.6289 111.866L191.758 167.366L192.258 166.5L192.758 165.634L96.6289 110.134L96.1289 111ZM3 168.231H2V275.768H3H4V168.231H3ZM3 275.768L2.5 276.634L95.6289 330.402L96.1289 329.536L96.6289 328.67L3.5 274.902L3 275.768ZM96.1289 329.536L96.6289 330.402L189.758 276.634L189.258 275.768L188.758 274.902L95.6289 328.67L96.1289 329.536ZM189.258 275.768H190.258V168.231H189.258H188.258V275.768H189.258ZM189.258 168.231L189.758 167.365L96.6289 113.597L96.1289 114.463L95.6289 115.329L188.758 169.097L189.258 168.231ZM96.1289 114.463L95.6289 113.597L2.5 167.365L3 168.231L3.5 169.097L96.6289 115.329L96.1289 114.463ZM641.129 187V186H578.129V187V188H641.129V187ZM578.129 187H579.129V183H578.129H577.129V187H578.129ZM578.129 183V184H641.129V183V182H578.129V183ZM641.129 183H640.129V187H641.129H642.129V183H641.129ZM641.129 115V114H331.117V115V116H641.129V115ZM331.117 115L330.603 114.143L270.673 150.106L271.188 150.964L271.702 151.821L331.632 115.857L331.117 115ZM271.188 150.964L272.045 150.449L269.986 147.02L269.129 147.534L268.271 148.049L270.33 151.479L271.188 150.964ZM269.129 147.534L269.643 148.392L330.523 111.857L330.009 111L329.494 110.143L268.614 146.677L269.129 147.534ZM330.009 111L329.152 111.516L329.273 111.716L330.129 111.199L330.985 110.683L330.865 110.484L330.009 111ZM330.129 111.199H331.129V111H330.129H329.129V111.199H330.129ZM330.129 111V112H641.129V111V110H330.129V111ZM641.129 111H640.129V115H641.129H642.129V111H641.129ZM303.258 75.5L302.758 74.634L206.629 130.134L207.129 131L207.629 131.866L303.758 76.366L303.258 75.5ZM207.129 131L207.629 130.134L111.5 74.634L111 75.5L110.5 76.366L206.629 131.866L207.129 131ZM111 75.5H112V0H111H110V75.5H111ZM111 0V1H114V0V-1H111V0ZM114 0H113V73.7676H114H115V0H114ZM114 73.7676L113.5 74.6336L206.629 128.402L207.129 127.536L207.629 126.67L114.5 72.9016L114 73.7676ZM207.129 127.536L207.629 128.402L300.758 74.6336L300.258 73.7676L299.758 72.9016L206.629 126.67L207.129 127.536ZM300.258 73.7676H301.258V0H300.258H299.258V73.7676H300.258ZM300.258 0V1H303.258V0V-1H300.258V0ZM303.258 0H302.258V75.5H303.258H304.258V0H303.258Z" fill="black" mask="url(#path-1-inside-1_2156_8099)"/>
</svg>
