<svg width="150" height="142" viewBox="0 0 150 142" fill="none" xmlns="http://www.w3.org/2000/svg">
<g filter="url(#filter0_ddd_90_4912)">
<path d="M82.5537 85.7402H67.1523V84.1475H82.5537V85.7402ZM77.2432 82.0225H71.9326V80.4297H62.0703L61.7588 80.4219C58.551 80.2595 56 77.6066 56 74.3584V62.0703C56.0003 58.7179 58.7179 56.0002 62.0703 56H87.1045L87.417 56.0078C90.6244 56.1705 93.1745 58.8226 93.1748 62.0703V74.3584C93.1748 77.6064 90.6245 80.2592 87.417 80.4219L87.1045 80.4297H77.2432V82.0225ZM62.0703 58.2764C59.9752 58.2766 58.2766 59.9752 58.2764 62.0703V74.3584C58.2764 76.4537 59.975 78.1531 62.0703 78.1533H87.1045C89.2 78.1533 90.8984 76.4539 90.8984 74.3584V62.0703C90.8982 59.9751 89.1998 58.2764 87.1045 58.2764H62.0703Z" fill="white"/>
</g>
<defs>
<filter id="filter0_ddd_90_4912" x="0" y="0" width="149.175" height="141.74" filterUnits="userSpaceOnUse" color-interpolation-filters="sRGB">
<feFlood flood-opacity="0" result="BackgroundImageFix"/>
<feColorMatrix in="SourceAlpha" type="matrix" values="0 0 0 0 0 0 0 0 0 0 0 0 0 0 0 0 0 0 127 0" result="hardAlpha"/>
<feMorphology radius="4" operator="dilate" in="SourceAlpha" result="effect1_dropShadow_90_4912"/>
<feOffset/>
<feGaussianBlur stdDeviation="6"/>
<feComposite in2="hardAlpha" operator="out"/>
<feColorMatrix type="matrix" values="0 0 0 0 0.2 0 0 0 0 0.572549 0 0 0 0 1 0 0 0 1 0"/>
<feBlend mode="normal" in2="BackgroundImageFix" result="effect1_dropShadow_90_4912"/>
<feColorMatrix in="SourceAlpha" type="matrix" values="0 0 0 0 0 0 0 0 0 0 0 0 0 0 0 0 0 0 127 0" result="hardAlpha"/>
<feMorphology radius="4" operator="dilate" in="SourceAlpha" result="effect2_dropShadow_90_4912"/>
<feOffset/>
<feGaussianBlur stdDeviation="2"/>
<feComposite in2="hardAlpha" operator="out"/>
<feColorMatrix type="matrix" values="0 0 0 0 0.2 0 0 0 0 0.572549 0 0 0 0 1 0 0 0 1 0"/>
<feBlend mode="normal" in2="effect1_dropShadow_90_4912" result="effect2_dropShadow_90_4912"/>
<feColorMatrix in="SourceAlpha" type="matrix" values="0 0 0 0 0 0 0 0 0 0 0 0 0 0 0 0 0 0 127 0" result="hardAlpha"/>
<feMorphology radius="48" operator="dilate" in="SourceAlpha" result="effect3_dropShadow_90_4912"/>
<feOffset/>
<feGaussianBlur stdDeviation="4"/>
<feComposite in2="hardAlpha" operator="out"/>
<feColorMatrix type="matrix" values="0 0 0 0 0.201923 0 0 0 0 0.574359 0 0 0 0 1 0 0 0 1 0"/>
<feBlend mode="normal" in2="effect2_dropShadow_90_4912" result="effect3_dropShadow_90_4912"/>
<feBlend mode="normal" in="SourceGraphic" in2="effect3_dropShadow_90_4912" result="shape"/>
</filter>
</defs>
</svg>
