<svg width="35" height="35" viewBox="0 0 35 35" fill="none" xmlns="http://www.w3.org/2000/svg">
<path d="M27.7061 0C31.7165 0.00019428 34.9687 3.25121 34.9688 7.26172V27.1953C34.9688 31.2059 31.7166 34.4568 27.7061 34.457H7.26172C3.25104 34.457 0 31.206 0 27.1953V7.26172C5.66921e-05 3.25109 3.25107 0 7.26172 0H27.7061ZM7.05176 3.18164C4.8933 3.29086 3.17681 5.07614 3.17676 7.26172V27.1953C3.17676 29.3809 4.89327 31.1662 7.05176 31.2754L7.26172 31.2803H27.7061C29.9619 31.2801 31.791 29.4512 31.791 27.1953V7.26172C31.791 5.00588 29.9619 3.17695 27.7061 3.17676H7.26172L7.05176 3.18164ZM17.6885 8.29688C22.4131 8.53645 26.1699 12.4434 26.1699 17.2275L26.1582 17.6875C25.9186 22.4119 22.0125 26.1688 17.2285 26.1689L16.7676 26.1572C12.1956 25.9252 8.52974 22.2595 8.29785 17.6875L8.28613 17.2275C8.28613 12.289 12.29 8.28521 17.2285 8.28516L17.6885 8.29688ZM17.2285 11.4619C14.0447 11.462 11.4629 14.0437 11.4629 17.2275C11.4631 20.4112 14.0448 22.9921 17.2285 22.9922C20.4121 22.992 22.9929 20.4111 22.9932 17.2275C22.9932 14.0438 20.4122 11.4621 17.2285 11.4619ZM26.4258 6.24219C27.4135 6.24221 28.2139 7.04355 28.2139 8.03125C28.2136 9.01876 27.4133 9.81932 26.4258 9.81934C25.4382 9.81934 24.6379 9.01877 24.6377 8.03125C24.6377 7.04354 25.4381 6.24219 26.4258 6.24219Z" fill="#50AAFF"/>
</svg>
