<svg width="37" height="37" viewBox="0 0 37 37" fill="none" xmlns="http://www.w3.org/2000/svg">
<path d="M8.17188 36.3193H0.544922V12.3496H8.17188V36.3193ZM19.7939 15.6182C20.8231 13.4391 24.515 9.62482 31.0518 12.3486C33.7756 14.1643 36.4999 17.2524 36.1367 22.7002L36.5 36.3193L28.5098 36.1377V22.5186C28.5097 20.4125 26.8023 18.7051 24.6963 18.7051C22.5903 18.7052 20.8829 20.4126 20.8828 22.5186V36.1377H12.5303V11.9863H19.7939V15.6182ZM4.3584 0C6.76523 0.000102294 8.71671 1.95156 8.7168 4.3584C8.7168 6.76531 6.76528 8.71669 4.3584 8.7168C1.95143 8.7168 0 6.76537 0 4.3584C8.20921e-05 1.9515 1.95148 0 4.3584 0Z" fill="#50AAFF"/>
</svg>
