<svg width="38" height="30" viewBox="0 0 38 30" fill="none" xmlns="http://www.w3.org/2000/svg">
<path d="M26.5537 29.7402H11.1523V28.1475H26.5537V29.7402ZM21.2432 26.0225H15.9326V24.4297H6.07031L5.75879 24.4219C2.55097 24.2595 0 21.6066 0 18.3584V6.07031C0.000282669 2.71791 2.7179 0.000245824 6.07031 0H31.1045L31.417 0.0078125C34.6244 0.170455 37.1745 2.82257 37.1748 6.07031V18.3584C37.1748 21.6064 34.6245 24.2592 31.417 24.4219L31.1045 24.4297H21.2432V26.0225ZM6.07031 2.27637C3.9752 2.27661 2.27665 3.97521 2.27637 6.07031V18.3584C2.27637 20.4537 3.97503 22.1531 6.07031 22.1533H31.1045C33.2 22.1533 34.8984 20.4539 34.8984 18.3584V6.07031C34.8982 3.97506 33.1998 2.27638 31.1045 2.27637H6.07031Z" fill="white"/>
</svg>
