<svg width="32" height="36" viewBox="0 0 32 36" fill="none" xmlns="http://www.w3.org/2000/svg">
<path d="M20.959 0C21.0093 2.01121 21.632 5.08615 23.2529 7.60547C24.7976 10.0061 27.2221 11.9028 31.2041 12.0166L31.1289 14.6631L31.0527 17.3096C26.6248 17.183 23.3257 15.4917 20.96 13.1475V24.6377C20.9599 30.4282 16.2645 35.1112 10.4795 35.1113C4.69187 35.1112 0.000236915 30.4194 0 24.6318V24.4531C0.000176271 18.5671 4.77209 13.7959 10.6582 13.7959H11.1914V19.0908H10.6582C7.69655 19.0908 5.2951 21.4915 5.29492 24.4531V24.6318C5.29516 27.495 7.61633 29.8162 10.4795 29.8164C13.3455 29.8162 15.664 27.4983 15.6641 24.6377V0.0664062L20.959 0Z" fill="#50AAFF"/>
</svg>
