<svg width="38" height="31" viewBox="0 0 38 31" fill="none" xmlns="http://www.w3.org/2000/svg">
<path d="M27.8125 0C33.2199 0.000220309 37.5995 4.39675 37.5996 9.81348V10.3721C37.5996 13.5446 36.1507 16.5443 33.667 18.5117L19.2998 29.8906L18.7363 30.3369L18.1748 29.8887L3.91016 18.5137C1.43926 16.5431 5.05959e-05 13.5502 0 10.3857V9.74023C9.26261e-05 4.36404 4.34686 0.000229445 9.71387 0C11.9731 9.14352e-05 14.1624 0.790624 15.9033 2.2334L18.7402 4.58398L21.6025 2.22852C23.3527 0.788132 25.5477 4.28877e-05 27.8125 0ZM27.8125 1.80859C25.9675 1.80864 24.1789 2.44988 22.752 3.62402L19.3125 6.45508L18.7363 6.92871L18.1621 6.45312L14.75 3.625C13.333 2.45064 11.5513 1.80868 9.71387 1.80859C5.35015 1.80882 1.80869 5.35747 1.80859 9.74023V10.3857C1.80864 13.0012 2.99811 15.4727 5.03809 17.0996L18.7402 28.0273L32.5449 17.0947C34.5949 15.4709 35.792 12.9935 35.792 10.3721V9.81348C35.7919 5.39018 32.2166 1.80881 27.8125 1.80859Z" fill="#A9B1C2" fill-opacity="0.7"/>
</svg>
