<svg width="144" height="144" viewBox="0 0 144 144" fill="none" xmlns="http://www.w3.org/2000/svg">
<g filter="url(#filter0_ddd_2016_7314)">
<path d="M72 56C80.8366 56 88 63.1634 88 72C88 80.8366 80.8366 88 72 88C63.1634 88 56 80.8366 56 72C56 63.1634 63.1634 56 72 56ZM72 74.8887C67.2458 74.8888 63.3999 78.1662 62.5996 82.374C65.0844 84.627 68.3817 86 72 86C75.618 86 78.9147 84.6267 81.3994 82.374C80.5994 78.1662 76.7542 74.8888 72 74.8887ZM72 58C64.268 58 58 64.268 58 72C58 75.2615 59.1153 78.2626 60.9854 80.6426C62.4656 76.1476 66.8356 72.8888 72 72.8887L72.5947 72.9033C77.4978 73.1424 81.5906 76.3214 83.0137 80.6426C84.8839 78.2625 86 75.2618 86 72C86 64.268 79.732 58 72 58ZM72.4443 61.333C75.1441 61.3331 77.3327 63.5219 77.333 66.2217C77.333 68.9217 75.1443 71.1103 72.4443 71.1104C69.7444 71.1102 67.5557 68.9217 67.5557 66.2217C67.556 63.5219 69.7446 61.3331 72.4443 61.333ZM72.4443 63.333C70.8491 63.3331 69.556 64.6265 69.5557 66.2217C69.5557 67.8171 70.8489 69.1102 72.4443 69.1104C74.0398 69.1103 75.333 67.8171 75.333 66.2217C75.3327 64.6265 74.0396 63.3331 72.4443 63.333ZM86.667 56C87.4031 56.0002 87.9998 56.5969 88 57.333C88 58.0693 87.4032 58.6668 86.667 58.667C85.9306 58.667 85.333 58.0694 85.333 57.333C85.3332 56.5968 85.9307 56 86.667 56Z" fill="white"/>
</g>
<defs>
<filter id="filter0_ddd_2016_7314" x="0" y="0" width="144" height="144" filterUnits="userSpaceOnUse" color-interpolation-filters="sRGB">
<feFlood flood-opacity="0" result="BackgroundImageFix"/>
<feColorMatrix in="SourceAlpha" type="matrix" values="0 0 0 0 0 0 0 0 0 0 0 0 0 0 0 0 0 0 127 0" result="hardAlpha"/>
<feMorphology radius="4" operator="dilate" in="SourceAlpha" result="effect1_dropShadow_2016_7314"/>
<feOffset/>
<feGaussianBlur stdDeviation="6"/>
<feComposite in2="hardAlpha" operator="out"/>
<feColorMatrix type="matrix" values="0 0 0 0 0.2 0 0 0 0 0.572549 0 0 0 0 1 0 0 0 1 0"/>
<feBlend mode="normal" in2="BackgroundImageFix" result="effect1_dropShadow_2016_7314"/>
<feColorMatrix in="SourceAlpha" type="matrix" values="0 0 0 0 0 0 0 0 0 0 0 0 0 0 0 0 0 0 127 0" result="hardAlpha"/>
<feMorphology radius="4" operator="dilate" in="SourceAlpha" result="effect2_dropShadow_2016_7314"/>
<feOffset/>
<feGaussianBlur stdDeviation="2"/>
<feComposite in2="hardAlpha" operator="out"/>
<feColorMatrix type="matrix" values="0 0 0 0 0.2 0 0 0 0 0.572549 0 0 0 0 1 0 0 0 1 0"/>
<feBlend mode="normal" in2="effect1_dropShadow_2016_7314" result="effect2_dropShadow_2016_7314"/>
<feColorMatrix in="SourceAlpha" type="matrix" values="0 0 0 0 0 0 0 0 0 0 0 0 0 0 0 0 0 0 127 0" result="hardAlpha"/>
<feMorphology radius="48" operator="dilate" in="SourceAlpha" result="effect3_dropShadow_2016_7314"/>
<feOffset/>
<feGaussianBlur stdDeviation="4"/>
<feComposite in2="hardAlpha" operator="out"/>
<feColorMatrix type="matrix" values="0 0 0 0 0.201923 0 0 0 0 0.574359 0 0 0 0 1 0 0 0 1 0"/>
<feBlend mode="normal" in2="effect2_dropShadow_2016_7314" result="effect3_dropShadow_2016_7314"/>
<feBlend mode="normal" in="SourceGraphic" in2="effect3_dropShadow_2016_7314" result="shape"/>
</filter>
</defs>
</svg>
