<svg width="38" height="38" viewBox="0 0 38 38" fill="none" xmlns="http://www.w3.org/2000/svg">
<path d="M19.3115 0.00585938C29.484 0.263711 37.6514 8.59157 37.6514 18.8262L37.6455 19.3115C37.3878 29.4838 29.0605 37.6509 18.8262 37.6514L18.3398 37.6455C8.32873 37.3919 0.259523 29.3226 0.00585938 19.3115L0 18.8262C0 8.42903 8.42903 0 18.8262 0L19.3115 0.00585938ZM18.8262 3.90918C10.5878 3.90918 3.90918 10.5878 3.90918 18.8262C3.90946 25.806 8.70364 31.6648 15.1787 33.292V20.2168H12.4902V16.7041H15.1787V16.0586C15.1787 13.6451 15.8831 11.8404 17.293 10.6455C18.7028 9.42681 20.818 8.88989 23.6377 9.0332V12.6172C22.0368 12.5456 20.9137 12.8089 20.2686 13.4062C19.6235 13.9798 19.3008 14.9712 19.3008 16.3809V16.7041H23.6377V20.2168H19.3008V33.7334C27.3189 33.4824 33.7419 26.9052 33.7422 18.8262C33.7422 10.5881 27.0642 3.90961 18.8262 3.90918Z" fill="#50AAFF"/>
</svg>
