<svg width="61" height="58" viewBox="0 0 61 58" fill="none" xmlns="http://www.w3.org/2000/svg">
<path d="M31.417 0C47.4331 0.000175881 60.417 12.9839 60.417 29C60.417 45.0161 47.4331 57.9998 31.417 58C25.257 58 19.5463 56.0778 14.8496 52.8027L0 58L5.33594 41.6934C3.46651 37.8594 2.41699 33.5524 2.41699 29C2.41699 12.9837 15.4007 0 31.417 0ZM31.417 5.0332C18.1807 5.0332 7.4502 15.7637 7.4502 29C7.4502 33.1717 8.51717 37.0937 10.3916 40.5098L6.04199 51.5557L16.7783 47.9766L16.917 47.9307L16.8926 48.0635C20.9227 51.1387 25.9562 52.9668 31.417 52.9668C44.6531 52.9666 55.3828 42.2362 55.3828 29C55.3828 15.7638 44.6531 5.03338 31.417 5.0332ZM26.749 22.1211L23.6895 25.54C24.9138 31.3141 31.3402 34.7839 34.4004 35.7969L37.46 31.998H38.9902L45.1113 35.7969C45.1112 41.571 40.2655 42.5081 37.8428 42.2549C26.2141 39.8236 19.7365 30.8586 17.9512 26.6797C15.1969 19.6897 18.5887 15.9154 20.6289 14.9023H23.6895L26.749 22.1211Z" fill="white"/>
</svg>
