<svg width="52" height="52" viewBox="0 0 52 52" fill="none" xmlns="http://www.w3.org/2000/svg">
<path d="M25.7998 0C40.0487 0 51.5995 11.5509 51.5996 25.7998C51.5996 40.0488 40.0488 51.5996 25.7998 51.5996C11.5509 51.5995 0 40.0487 0 25.7998C0.000105142 11.551 11.551 0.000105148 25.7998 0ZM25.7998 4.7998C14.202 4.79991 4.79991 14.202 4.7998 25.7998C4.7998 37.3977 14.2019 46.7997 25.7998 46.7998C37.3978 46.7998 46.7998 37.3978 46.7998 25.7998C46.7997 14.2019 37.3977 4.7998 25.7998 4.7998ZM28.2002 22.75C28.9872 23.1913 29.6085 23.8915 29.9521 24.7344H40.0342V29.5342H28.5254C27.8783 29.9836 27.0927 30.248 26.2451 30.248C25.3976 30.248 24.612 29.9835 23.9648 29.5342H23.3994V29.0596C22.6838 28.3363 22.2412 27.342 22.2412 26.2441C22.2413 25.146 22.6834 24.151 23.3994 23.4277V9.78613H28.2002V22.75Z" fill="#94CAF6"/>
</svg>
