<svg width="550" height="333" viewBox="0 0 550 333" fill="none" xmlns="http://www.w3.org/2000/svg">
<mask id="path-1-inside-1_2156_8093" fill="white">
<path d="M549.564 249.75V305.25L501.5 333L453.436 305.25V249.75L501.5 222L549.564 249.75ZM456.436 251.481V303.518L501.5 329.536L546.564 303.518V251.481L501.5 225.463L456.436 251.481ZM311 202.199L311.12 202L372 238.534L369.941 241.964L310.012 206H0V202H311V202.199ZM521.129 55.5V166.5L425 222L328.871 166.5V55.5L425 0L521.129 55.5ZM331.871 57.2314V164.768L425 218.536L518.129 164.768V57.2314L425 3.46289L331.871 57.2314Z"/>
</mask>
<path d="M549.564 249.75H550.564V249.173L550.064 248.884L549.564 249.75ZM549.564 305.25L550.064 306.116L550.564 305.827V305.25H549.564ZM501.5 333L501 333.866L501.5 334.155L502 333.866L501.5 333ZM453.436 305.25H452.436V305.827L452.936 306.116L453.436 305.25ZM453.436 249.75L452.936 248.884L452.436 249.173V249.75H453.436ZM501.5 222L502 221.134L501.5 220.845L501 221.134L501.5 222ZM456.436 251.481L455.936 250.615L455.436 250.904V251.481H456.436ZM456.436 303.518H455.436V304.095L455.936 304.384L456.436 303.518ZM501.5 329.536L501 330.402L501.5 330.691L502 330.402L501.5 329.536ZM546.564 303.518L547.064 304.384L547.564 304.095V303.518H546.564ZM546.564 251.481H547.564V250.904L547.064 250.615L546.564 251.481ZM501.5 225.463L502 224.597L501.5 224.308L501 224.597L501.5 225.463ZM311 202.199H310V205.794L311.856 202.716L311 202.199ZM311.12 202L311.635 201.143L310.779 200.629L310.264 201.484L311.12 202ZM372 238.534L372.857 239.049L373.372 238.191L372.515 237.677L372 238.534ZM369.941 241.964L369.427 242.821L370.284 243.336L370.799 242.479L369.941 241.964ZM310.012 206L310.526 205.143L310.289 205H310.012V206ZM0 206H-1V207H0V206ZM0 202V201H-1V202H0ZM311 202H312V201H311V202ZM521.129 55.5H522.129V54.9226L521.629 54.634L521.129 55.5ZM521.129 166.5L521.629 167.366L522.129 167.077V166.5H521.129ZM425 222L424.5 222.866L425 223.155L425.5 222.866L425 222ZM328.871 166.5H327.871V167.077L328.371 167.366L328.871 166.5ZM328.871 55.5L328.371 54.634L327.871 54.9226V55.5H328.871ZM425 0L425.5 -0.866026L425 -1.1547L424.5 -0.866026L425 0ZM331.871 57.2314L331.371 56.3654L330.871 56.6541V57.2314H331.871ZM331.871 164.768H330.871V165.345L331.371 165.634L331.871 164.768ZM425 218.536L424.5 219.402L425 219.691L425.5 219.402L425 218.536ZM518.129 164.768L518.629 165.634L519.129 165.345V164.768H518.129ZM518.129 57.2314H519.129V56.6541L518.629 56.3654L518.129 57.2314ZM425 3.46289L425.5 2.59687L425 2.30819L424.5 2.59687L425 3.46289ZM549.564 249.75H548.564V305.25H549.564H550.564V249.75H549.564ZM549.564 305.25L549.064 304.384L501 332.134L501.5 333L502 333.866L550.064 306.116L549.564 305.25ZM501.5 333L502 332.134L453.936 304.384L453.436 305.25L452.936 306.116L501 333.866L501.5 333ZM453.436 305.25H454.436V249.75H453.436H452.436V305.25H453.436ZM453.436 249.75L453.936 250.616L502 222.866L501.5 222L501 221.134L452.936 248.884L453.436 249.75ZM501.5 222L501 222.866L549.064 250.616L549.564 249.75L550.064 248.884L502 221.134L501.5 222ZM456.436 251.481H455.436V303.518H456.436H457.436V251.481H456.436ZM456.436 303.518L455.936 304.384L501 330.402L501.5 329.536L502 328.67L456.936 302.652L456.436 303.518ZM501.5 329.536L502 330.402L547.064 304.384L546.564 303.518L546.064 302.652L501 328.67L501.5 329.536ZM546.564 303.518H547.564V251.481H546.564H545.564V303.518H546.564ZM546.564 251.481L547.064 250.615L502 224.597L501.5 225.463L501 226.329L546.064 252.347L546.564 251.481ZM501.5 225.463L501 224.597L455.936 250.615L456.436 251.481L456.936 252.347L502 226.329L501.5 225.463ZM311 202.199L311.856 202.716L311.977 202.516L311.12 202L310.264 201.484L310.144 201.683L311 202.199ZM311.12 202L310.606 202.857L371.485 239.392L372 238.534L372.515 237.677L311.635 201.143L311.12 202ZM372 238.534L371.143 238.02L369.084 241.449L369.941 241.964L370.799 242.479L372.857 239.049L372 238.534ZM369.941 241.964L370.456 241.106L310.526 205.143L310.012 206L309.497 206.857L369.427 242.821L369.941 241.964ZM310.012 206V205H0V206V207H310.012V206ZM0 206H1V202H0H-1V206H0ZM0 202V203H311V202V201H0V202ZM311 202H310V202.199H311H312V202H311ZM521.129 55.5H520.129V166.5H521.129H522.129V55.5H521.129ZM521.129 166.5L520.629 165.634L424.5 221.134L425 222L425.5 222.866L521.629 167.366L521.129 166.5ZM425 222L425.5 221.134L329.371 165.634L328.871 166.5L328.371 167.366L424.5 222.866L425 222ZM328.871 166.5H329.871V55.5H328.871H327.871V166.5H328.871ZM328.871 55.5L329.371 56.366L425.5 0.866026L425 0L424.5 -0.866026L328.371 54.634L328.871 55.5ZM425 0L424.5 0.866026L520.629 56.366L521.129 55.5L521.629 54.634L425.5 -0.866026L425 0ZM331.871 57.2314H330.871V164.768H331.871H332.871V57.2314H331.871ZM331.871 164.768L331.371 165.634L424.5 219.402L425 218.536L425.5 217.67L332.371 163.902L331.871 164.768ZM425 218.536L425.5 219.402L518.629 165.634L518.129 164.768L517.629 163.902L424.5 217.67L425 218.536ZM518.129 164.768H519.129V57.2314H518.129H517.129V164.768H518.129ZM518.129 57.2314L518.629 56.3654L425.5 2.59687L425 3.46289L424.5 4.32891L517.629 58.0975L518.129 57.2314ZM425 3.46289L424.5 2.59687L331.371 56.3654L331.871 57.2314L332.371 58.0975L425.5 4.32891L425 3.46289Z" fill="black" mask="url(#path-1-inside-1_2156_8093)"/>
</svg>
