<svg width="64" height="64" viewBox="0 0 64 64" fill="none" xmlns="http://www.w3.org/2000/svg">
<g filter="url(#filter0_dd_2049_8556)">
<path d="M32 16C40.8366 16 48 23.1634 48 32C48 40.8366 40.8366 48 32 48C23.1634 48 16 40.8366 16 32C16 23.1634 23.1634 16 32 16ZM32 34.8887C27.2458 34.8888 23.3999 38.1662 22.5996 42.374C25.0844 44.627 28.3817 46 32 46C35.618 46 38.9147 44.6267 41.3994 42.374C40.5994 38.1662 36.7542 34.8888 32 34.8887ZM32 18C24.268 18 18 24.268 18 32C18 35.2615 19.1153 38.2626 20.9854 40.6426C22.4656 36.1476 26.8356 32.8888 32 32.8887L32.5947 32.9033C37.4978 33.1424 41.5906 36.3214 43.0137 40.6426C44.8839 38.2625 46 35.2618 46 32C46 24.268 39.732 18 32 18ZM32.4443 21.333C35.1441 21.3331 37.3327 23.5219 37.333 26.2217C37.333 28.9217 35.1443 31.1103 32.4443 31.1104C29.7444 31.1102 27.5557 28.9217 27.5557 26.2217C27.556 23.5219 29.7446 21.3331 32.4443 21.333ZM32.4443 23.333C30.8491 23.3331 29.556 24.6265 29.5557 26.2217C29.5557 27.8171 30.8489 29.1102 32.4443 29.1104C34.0398 29.1103 35.333 27.8171 35.333 26.2217C35.3327 24.6265 34.0396 23.3331 32.4443 23.333ZM46.667 16C47.4031 16.0002 47.9998 16.5969 48 17.333C48 18.0693 47.4032 18.6668 46.667 18.667C45.9306 18.667 45.333 18.0694 45.333 17.333C45.3332 16.5968 45.9307 16 46.667 16Z" fill="white"/>
</g>
<defs>
<filter id="filter0_dd_2049_8556" x="0" y="0" width="64" height="64" filterUnits="userSpaceOnUse" color-interpolation-filters="sRGB">
<feFlood flood-opacity="0" result="BackgroundImageFix"/>
<feColorMatrix in="SourceAlpha" type="matrix" values="0 0 0 0 0 0 0 0 0 0 0 0 0 0 0 0 0 0 127 0" result="hardAlpha"/>
<feMorphology radius="4" operator="dilate" in="SourceAlpha" result="effect1_dropShadow_2049_8556"/>
<feOffset/>
<feGaussianBlur stdDeviation="6"/>
<feComposite in2="hardAlpha" operator="out"/>
<feColorMatrix type="matrix" values="0 0 0 0 0.2 0 0 0 0 0.572549 0 0 0 0 1 0 0 0 1 0"/>
<feBlend mode="normal" in2="BackgroundImageFix" result="effect1_dropShadow_2049_8556"/>
<feColorMatrix in="SourceAlpha" type="matrix" values="0 0 0 0 0 0 0 0 0 0 0 0 0 0 0 0 0 0 127 0" result="hardAlpha"/>
<feMorphology radius="4" operator="dilate" in="SourceAlpha" result="effect2_dropShadow_2049_8556"/>
<feOffset/>
<feGaussianBlur stdDeviation="2"/>
<feComposite in2="hardAlpha" operator="out"/>
<feColorMatrix type="matrix" values="0 0 0 0 0.2 0 0 0 0 0.572549 0 0 0 0 1 0 0 0 1 0"/>
<feBlend mode="normal" in2="effect1_dropShadow_2049_8556" result="effect2_dropShadow_2049_8556"/>
<feBlend mode="normal" in="SourceGraphic" in2="effect2_dropShadow_2049_8556" result="shape"/>
</filter>
</defs>
</svg>
