<svg width="32" height="32" viewBox="0 0 32 32" fill="none" xmlns="http://www.w3.org/2000/svg">
<path d="M16 0C24.8366 0 32 7.16344 32 16C32 24.8366 24.8366 32 16 32C7.16344 32 0 24.8366 0 16C0 7.16344 7.16344 0 16 0ZM16 18.8887C11.2458 18.8888 7.3999 22.1662 6.59961 26.374C9.08439 28.627 12.3817 30 16 30C19.618 30 22.9147 28.6267 25.3994 26.374C24.5994 22.1662 20.7542 18.8888 16 18.8887ZM16 2C8.26801 2 2 8.26801 2 16C2 19.2615 3.11531 22.2626 4.98535 24.6426C6.46556 20.1476 10.8356 16.8888 16 16.8887L16.5947 16.9033C21.4978 17.1424 25.5906 20.3214 27.0137 24.6426C28.8839 22.2625 30 19.2618 30 16C30 8.26801 23.732 2 16 2ZM16.4443 5.33301C19.1441 5.33309 21.3327 7.52192 21.333 10.2217C21.333 12.9217 19.1443 15.1103 16.4443 15.1104C13.7444 15.1102 11.5557 12.9217 11.5557 10.2217C11.556 7.52194 13.7446 5.33313 16.4443 5.33301ZM16.4443 7.33301C14.8491 7.33313 13.556 8.62651 13.5557 10.2217C13.5557 11.8171 14.8489 13.1102 16.4443 13.1104C18.0398 13.1103 19.333 11.8171 19.333 10.2217C19.3327 8.62649 18.0396 7.33309 16.4443 7.33301ZM30.667 0C31.4031 0.000175503 31.9998 0.596886 32 1.33301C32 2.06928 31.4032 2.66682 30.667 2.66699C29.9306 2.66699 29.333 2.06939 29.333 1.33301C29.3332 0.596778 29.9307 0 30.667 0Z" fill="white"/>
</svg>
